<?xml version="1.0" standalone="no"?><!DOCTYPE svg PUBLIC "-//W3C//DTD SVG 1.1//EN" "http://www.w3.org/Graphics/SVG/1.1/DTD/svg11.dtd"><svg t="1765109047725" class="icon" viewBox="0 0 1024 1024" version="1.1" xmlns="http://www.w3.org/2000/svg" p-id="6665" xmlns:xlink="http://www.w3.org/1999/xlink" width="200" height="200"><path d="M425.8 141.5c0 42.8 34.7 77.5 77.5 77.5s77.5-34.7 77.5-77.5S546.2 64 503.4 64c-42.8 0-77.6 34.7-77.6 77.5z" fill="#FF0080" p-id="6666"></path><path d="M425.8 882.5c0 42.8 34.7 77.5 77.5 77.5s77.5-34.7 77.5-77.5-34.7-77.5-77.5-77.5c-42.7-0.1-77.5 34.6-77.5 77.5z" fill="#00FF80" p-id="6667"></path><path d="M615.4 830.8c0 27.7 14.8 53.3 38.8 67.1 24 13.9 53.6 13.9 77.5 0 24-13.9 38.8-39.4 38.8-67.1 0-27.7-14.8-53.3-38.8-67.2a77.23 77.23 0 0 0-77.5 0c-24 13.9-38.8 39.5-38.8 67.2z" fill="#00FF00" p-id="6668"></path><path d="M253.5 830.8c0 42.8 34.7 77.5 77.5 77.5s77.5-34.7 77.5-77.5-34.7-77.5-77.5-77.5c-42.7-0.1-77.5 34.6-77.5 77.5z" fill="#00FFFF" p-id="6669"></path><path d="M115.7 692.9c0 42.8 34.7 77.5 77.5 77.5s77.5-34.7 77.5-77.5-34.7-77.5-77.5-77.5-77.5 34.7-77.5 77.5z" fill="#0080FF" p-id="6670"></path><path d="M753.2 692.9c0 27.7 14.8 53.3 38.8 67.1 24 13.9 53.6 13.9 77.5 0 24-13.9 38.8-39.4 38.8-67.1 0-27.7-14.8-53.3-38.8-67.2-24-13.9-53.6-13.9-77.5 0-24 13.9-38.8 39.5-38.8 67.2z" fill="#80FF00" p-id="6671"></path><path d="M804.9 520.6c0 27.7 14.8 53.3 38.8 67.1 24 13.9 53.5 13.9 77.5 0s38.8-39.5 38.8-67.1c0-27.7-14.8-53.3-38.8-67.2a77.23 77.23 0 0 0-77.5 0c-24 13.9-38.8 39.5-38.8 67.2z" fill="#FFFF00" p-id="6672"></path><path d="M64 520.6c0 42.8 34.7 77.5 77.5 77.5s77.5-34.7 77.5-77.5-34.7-77.5-77.5-77.5S64 477.8 64 520.6z" fill="#0000FF" p-id="6673"></path><path d="M115.7 331.1c0 42.8 34.7 77.5 77.5 77.5s77.5-34.7 77.5-77.5-34.7-77.5-77.5-77.5-77.5 34.7-77.5 77.5z" fill="#8000FF" p-id="6674"></path><path d="M253.5 193.2c0 42.8 34.7 77.5 77.5 77.5s77.5-34.7 77.5-77.5-34.7-77.5-77.5-77.5-77.5 34.7-77.5 77.5z" fill="#FF00FF" p-id="6675"></path><path d="M615.4 193.2c0 42.8 34.7 77.5 77.5 77.5s77.5-34.7 77.5-77.5c0-27.7-14.8-53.3-38.8-67.1-24-13.9-53.6-13.9-77.5 0-23.9 13.8-38.7 39.4-38.7 67.1z" fill="#FF0000" p-id="6676"></path><path d="M753.2 331.1c0 27.7 14.8 53.3 38.8 67.2 24 13.9 53.6 13.9 77.5 0 24-13.8 38.8-39.4 38.8-67.2 0-27.7-14.8-53.3-38.8-67.1-24-13.9-53.6-13.9-77.5 0-24 13.8-38.8 39.4-38.8 67.1z" fill="#FF8000" p-id="6677"></path></svg>