<?xml version="1.0" standalone="no"?><!DOCTYPE svg PUBLIC "-//W3C//DTD SVG 1.1//EN" "http://www.w3.org/Graphics/SVG/1.1/DTD/svg11.dtd"><svg t="1764579881160" class="icon" viewBox="0 0 1024 1024" version="1.1" xmlns="http://www.w3.org/2000/svg" p-id="19586" xmlns:xlink="http://www.w3.org/1999/xlink" width="200" height="200"><path d="M512 983.466667C251.733333 983.466667 40.533333 772.266667 40.533333 512S251.733333 40.533333 512 40.533333 983.466667 251.733333 983.466667 512C981.333333 772.266667 772.266667 981.333333 512 983.466667z m0-878.933334C288 104.533333 104.533333 288 104.533333 512S288 919.466667 512 919.466667 919.466667 736 919.466667 512C917.333333 288 736 106.666667 512 104.533333z" fill="#af10fc" p-id="19587"></path><path d="M704 473.6H320c-17.066667 0-32-14.933333-32-32s14.933333-32 32-32h298.666667l-42.666667-38.4c-12.8-10.666667-14.933333-32-4.266667-44.8 10.666667-12.8 32-14.933333 44.8-2.133333l106.666667 93.866666c12.8 10.666667 14.933333 32 2.133333 44.8-4.266667 6.4-12.8 10.666667-21.333333 10.666667zM426.666667 708.266667c-8.533333 0-14.933333-2.133333-21.333334-8.533334l-106.666666-93.866666c-12.8-10.666667-14.933333-32-2.133334-44.8 6.4-6.4 14.933333-10.666667 23.466667-10.666667h384c17.066667 0 32 14.933333 32 32s-14.933333 32-32 32H403.2l42.666667 38.4c12.8 10.666667 14.933333 32 2.133333 44.8-4.266667 6.4-12.8 10.666667-21.333333 10.666667z" fill="#af10fc" p-id="19588"></path></svg>