<?xml version="1.0" standalone="no"?><!DOCTYPE svg PUBLIC "-//W3C//DTD SVG 1.1//EN" "http://www.w3.org/Graphics/SVG/1.1/DTD/svg11.dtd"><svg t="1765109796963" class="icon" viewBox="0 0 1024 1024" version="1.1" xmlns="http://www.w3.org/2000/svg" p-id="13883" xmlns:xlink="http://www.w3.org/1999/xlink" width="200" height="200"><path d="M299.775142 230.40343l-168.523178 327.30633 218.508164 289.962655 374.058457-54.544147 155.550292-344.548249-218.466717-289.962655-361.127018 71.786066z" fill="#60E7AC" p-id="13884"></path><path d="M318.219022 239.894775l-168.523178 327.30633-18.44388-9.491345 16.578768-12.434076 218.508165 289.921208-16.578769 12.475523-2.984178-20.516225 374.058456-54.544148 2.984179 20.516226-18.858349-8.538066 155.550292-344.548249 18.858349 8.538066-16.537321 12.475523-218.508165-289.962655 16.578769-12.475523 4.020351 20.308991L303.836941 250.753868l-4.061799-20.308991z m-32.287151-27.893777l383.674142-76.262334 233.760631 310.188752-165.331766 366.059201-397.434519 57.984241-233.719184-310.188752 174.491535-338.87002z" fill="#FFFFFF" p-id="13885"></path><path d="M146.131409 543.493467l334.186519-86.831298 5.222311 20.060309-18.319538-9.740026 165.580447-310.561775 36.59763 19.480053-165.580447 310.603221a20.72346 20.72346 0 0 1-13.097226 10.278836l-334.186519 86.831299z" fill="#FFFFFF" p-id="13886"></path><path d="M501.580198 464.785765l228.372531 303.059882-32.079916 24.205001-228.372532-303.059882z" fill="#FFFFFF" p-id="13887"></path><path d="M668.859968 452.06156c-7.709127 23.624745 1.409195 47.954087 20.72346 54.212572 18.899796 6.175591 40.576535-8.165043 48.244216-31.831235 7.833468-24.039214-1.243408-48.327109-20.18465-54.5027-19.314265-6.258485-40.991004 8.040703-48.783026 32.121363zM273.663583 407.837696c-16.247193 13.428802-23.541851 30.504933-16.247193 38.214061 7.253211 7.709127 26.318794 3.067072 42.565987-10.36173 16.28864-13.387355 23.583298-30.463486 16.28864-38.131167-7.253211-7.750574-26.318794-3.108519-42.607434 10.320283zM354.8581 602.223753c-14.962338-16.039958-38.048273-19.480053-51.062606-7.336105-13.345908 12.434076-11.522244 35.644352 3.440094 51.68431 15.293914 16.371534 38.338401 19.811628 51.68431 7.377551 13.05578-12.143948 11.190668-35.354223-4.061798-51.725756zM456.693183 583.116723c-14.962338-16.081405-38.048273-19.480053-51.062606-7.377552-13.345908 12.434076-11.522244 35.644352 3.440094 51.725756 15.293914 16.330087 38.338401 19.770181 51.68431 7.377552 13.05578-12.143948 11.190668-35.39567-4.061798-51.725756zM424.240244 694.235916c-15.003785-16.039958-38.08972-19.480053-51.104053-7.336105-13.345908 12.434076-11.522244 35.644352 3.481542 51.725757 15.252467 16.330087 38.338401 19.770181 51.684309 7.336105 13.014333-12.143948 11.190668-35.354223-4.061798-51.68431zM526.282562 675.460461c-14.962338-16.039958-38.048273-19.480053-51.062606-7.336105-13.345908 12.434076-11.522244 35.644352 3.440095 51.68431 15.293914 16.371534 38.338401 19.811628 51.684309 7.377552 13.05578-12.143948 11.190668-35.354223-4.061798-51.725757zM354.070608 347.242299c-16.247193 13.387355-23.500404 30.504933-16.247193 38.21406 7.294658 7.66768 26.360241 3.067072 42.607434-10.36173 16.247193-13.387355 23.541851-30.504933 16.28864-38.172613-7.294658-7.709127-26.360241-3.067072-42.648881 10.36173zM441.150588 281.631824c-16.247193 13.428802-23.541851 30.504933-16.247193 38.21406 7.253211 7.709127 26.318794 3.067072 42.565987-10.36173 16.28864-13.387355 23.541851-30.504933 16.28864-38.131166-7.294658-7.750574-26.360241-3.108519-42.607434 10.278836z" fill="#FFFFFF" p-id="13888"></path></svg>