<?xml version="1.0" standalone="no"?><!DOCTYPE svg PUBLIC "-//W3C//DTD SVG 1.1//EN" "http://www.w3.org/Graphics/SVG/1.1/DTD/svg11.dtd"><svg t="1764577146347" class="icon" viewBox="0 0 1024 1024" version="1.1" xmlns="http://www.w3.org/2000/svg" p-id="5580" xmlns:xlink="http://www.w3.org/1999/xlink" width="200" height="200"><path d="M895.98917 767.990717a127.998453 127.998453 0 0 0-125.415627 102.398763H230.397215a76.799072 76.799072 0 0 1-76.799072-76.799072V523.422245a101.347346 101.347346 0 0 0 51.199382 14.205542h565.776018a127.998453 127.998453 0 1 0 0-51.199381H230.397215a76.799072 76.799072 0 0 1-76.799072-76.799071V230.397215H102.398762v588.792883a102.398762 102.398762 0 0 0 102.398763 102.398763h565.776018A127.998453 127.998453 0 1 0 895.98917 767.990717z m0-332.795977a76.799072 76.799072 0 1 1-76.799072 76.799072 76.799072 76.799072 0 0 1 76.799072-76.799072z m0 537.593502a76.799072 76.799072 0 1 1 76.799072-76.799072 76.799072 76.799072 0 0 1-76.799072 76.799072z" fill="#2069A7" p-id="5581"></path><path d="M127.998453 0a127.998453 127.998453 0 1 0 127.998453 127.998453A127.998453 127.998453 0 0 0 127.998453 0z m0 204.797525a76.799072 76.799072 0 1 1 76.799072-76.799072 76.799072 76.799072 0 0 1-76.799072 76.799072z" fill="#57BAEE" p-id="5582"></path></svg>