<?xml version="1.0" standalone="no"?><!DOCTYPE svg PUBLIC "-//W3C//DTD SVG 1.1//EN" "http://www.w3.org/Graphics/SVG/1.1/DTD/svg11.dtd"><svg t="1764579581643" class="icon" viewBox="0 0 1024 1024" version="1.1" xmlns="http://www.w3.org/2000/svg" p-id="12552" xmlns:xlink="http://www.w3.org/1999/xlink" width="200" height="200"><path d="M384.6144 102.4H183.4496c-50.4832 0-91.4432 40.96-91.4432 91.4432v201.1136c0 50.5344 40.96 91.4432 91.4432 91.4432h201.1648c50.4832 0 91.392-40.96 91.392-91.4432V193.8432c0-50.5344-40.96-91.4432-91.392-91.4432z m-11.008 102.4v179.2h-179.2V204.8h179.2zM384.6144 537.6H183.4496c-50.4832 0-91.4432 40.96-91.4432 91.4432v201.1136c0 50.5344 40.96 91.4432 91.4432 91.4432h201.1648c50.4832 0 91.392-40.96 91.392-91.4432v-201.1136c0-50.5344-40.96-91.4432-91.392-91.4432z m-11.008 102.4V819.2h-179.2v-179.2h179.2zM845.4144 102.4h-201.1648c-50.4832 0-91.4432 40.96-91.4432 91.4432v201.1136c0 50.5344 40.96 91.4432 91.4432 91.4432h201.1648c50.4832 0 91.392-40.96 91.392-91.4432V193.8432c0-50.5344-40.96-91.4432-91.392-91.4432z m-11.008 102.4v179.2h-179.2V204.8h179.2z" fill="#2fd076" p-id="12553"></path><path d="M866.9696 705.6384a40.96 40.96 0 0 1 57.7024 58.1632l-148.224 146.944a40.96 40.96 0 0 1-57.344 0.3584l-151.6544-146.944a40.96 40.96 0 1 1 56.9856-58.88l122.88 119.04 119.6544-118.6816z" fill="#2fd076" p-id="12554"></path><path d="M747.52 537.6a40.96 40.96 0 0 1 40.96 40.96v297.984a40.96 40.96 0 1 1-81.92 0V578.56a40.96 40.96 0 0 1 40.96-40.96z" fill="#2fd076" p-id="12555"></path></svg>