<?xml version="1.0" standalone="no"?><!DOCTYPE svg PUBLIC "-//W3C//DTD SVG 1.1//EN" "http://www.w3.org/Graphics/SVG/1.1/DTD/svg11.dtd"><svg t="1764578517514" class="icon" viewBox="0 0 1024 1024" version="1.1" xmlns="http://www.w3.org/2000/svg" p-id="18523" xmlns:xlink="http://www.w3.org/1999/xlink" width="200" height="200"><path d="M512 1024a512 512 0 1 1 512-512 512 512 0 0 1-512 512z m0-896a384 384 0 1 0 384 384A384 384 0 0 0 512 128z m128 576h-256a64 64 0 0 1-64-64v-256a64 64 0 0 1 64-64h256a64 64 0 0 1 64 64v256a64 64 0 0 1-64 64z" fill="#0090FF" p-id="18524"></path></svg>