<svg width="512" height="512" viewBox="0 0 512 512" fill="none" xmlns="http://www.w3.org/2000/svg">
    <defs>
        <linearGradient id="bg_gradient" x1="0" y1="0" x2="512" y2="512" gradientUnits="userSpaceOnUse">
            <stop offset="0" stop-color="#FCFCFD"/>
            <stop offset="1" stop-color="#EAEFF4"/>
        </linearGradient>

        <linearGradient id="doc_fill" x1="100" y1="100" x2="400" y2="400" gradientUnits="userSpaceOnUse">
            <stop offset="0" stop-color="#FFFFFF"/>
            <stop offset="1" stop-color="#F3F5F7"/>
        </linearGradient>

        <linearGradient id="panda_black" x1="150" y="150" x2="362" y2="362" gradientUnits="userSpaceOnUse">
            <stop offset="0" stop-color="#364958"/>
            <stop offset="1" stop-color="#1E2833"/>
        </linearGradient>

        <linearGradient id="markdown_blue" x1="0" y1="0" x2="100" y2="100" gradientUnits="userSpaceOnUse">
            <stop offset="0" stop-color="#3C9ABF"/>
            <stop offset="1" stop-color="#38B2AC"/>
        </linearGradient>

        <filter id="soft_shadow" x="-20%" y="-20%" width="140%" height="140%">
            <feGaussianBlur in="SourceAlpha" stdDeviation="8"/>
            <feOffset dx="0" dy="6"/>
            <feComponentTransfer>
                <feFuncA type="linear" slope="0.15"/>
            </feComponentTransfer>
            <feMerge>
                <feMergeNode/>
                <feMergeNode in="SourceGraphic"/>
            </feMerge>
        </filter>
    </defs>

    <rect x="32" y="32" width="448" height="448" rx="100" fill="url(#bg_gradient)"/>

    <g filter="url(#soft_shadow)" transform="translate(64, 64)">
        <path d="M60 0 H260 L384 124 V384 H60 C40 384 24 368 24 348 V60 C24 40 40 24 60 24 Z" fill="url(#doc_fill)"/>
        <path d="M260 0 L384 124 L260 124 Z" fill="#DCE1E6"/>
    </g>

    <g transform="translate(148, 140)">
        <ellipse cx="108" cy="110" rx="90" ry="80" fill="white"/>

        <circle cx="70" cy="55" r="22" fill="url(#panda_black)"/>
        <circle cx="146" cy="55" r="22" fill="url(#panda_black)"/>

        <path d="M80 90 C68 98 65 110 70 125 C75 140 95 145 102 130 C109 115 105 100 98 90 Z" fill="url(#panda_black)"/>
        <path d="M136 90 C148 98 151 110 146 125 C141 140 121 145 114 130 C107 115 111 100 118 90 Z" fill="url(#panda_black)"/>

        <circle cx="89" cy="115" r="4" fill="white"/>
        <circle cx="127" cy="115" r="4" fill="white"/>

        <path d="M108 140 C103 145 100 150 108 155 C116 150 113 145 108 140 Z" fill="url(#panda_black)"/>
        <path d="M108 155 L108 165" stroke="url(#panda_black)" stroke-width="2" stroke-linecap="round"/>
        <path d="M108 165 C103 170 113 170 108 165" stroke="url(#panda_black)" stroke-width="2" stroke-linecap="round"/>
    </g>

    <g transform="translate(90, 90)">
        <rect x="0" y="200" width="180" height="20" rx="4" fill="url(#markdown_blue)"/>
        <rect x="0" y="240" width="180" height="20" rx="4" fill="url(#markdown_blue)"/>
        <rect x="75" y="160" width="20" height="140" rx="4" fill="url(#markdown_blue)"/>
        <rect x="115" y="160" width="20" height="140" rx="4" fill="url(#markdown_blue)"/>
    </g>

    <rect x="130" y="380" width="250" height="15" rx="4" fill="#A0AEC0"/>
    <rect x="130" y="410" width="200" height="15" rx="4" fill="#CBD5E0"/>

</svg>