<?xml version="1.0" standalone="no"?><!DOCTYPE svg PUBLIC "-//W3C//DTD SVG 1.1//EN" "http://www.w3.org/Graphics/SVG/1.1/DTD/svg11.dtd"><svg t="1764579852131" class="icon" viewBox="0 0 1024 1024" version="1.1" xmlns="http://www.w3.org/2000/svg" p-id="19377" xmlns:xlink="http://www.w3.org/1999/xlink" width="200" height="200"><path d="M673.728 1022.016l344.512-238.144a12.8 12.8 0 0 0 0-21.632l-344.512-238.272a11.84 11.84 0 0 0-12.8 0 12.8 12.8 0 0 0-5.824 12.16v169.216H363.328S206.208 709.056 166.4 588.8a311.232 311.232 0 0 0 124.928 220.48 174.656 174.656 0 0 0 102.4 31.488H652.8v169.28a14.592 14.592 0 0 0 7.232 12.032 13.376 13.376 0 0 0 13.632 0zM350.144 2.368L5.76 240.512a13.184 13.184 0 0 0 0 21.696l344.384 238.08a11.904 11.904 0 0 0 12.8 0.32 12.8 12.8 0 0 0 5.888-12.16V319.232h291.456s157.376-3.84 197.312 115.968a311.296 311.296 0 0 0-124.928-220.48 174.656 174.656 0 0 0-102.4-31.488H369.344V14.144A12.8 12.8 0 0 0 363.392 1.92a11.84 11.84 0 0 0-13.184 0.384z" fill="#af10fc" p-id="19378"></path></svg>